<svg id="Capa_1" enable-background="new 0 0 512.002 512.002" height="512" viewBox="0 0 512.002 512.002" width="512" xmlns="http://www.w3.org/2000/svg"><path d="m268.264 73.734h185.816v87.588h-185.816z" fill="#fee55a"/><path d="m499.066 112.121-44.986-38.387v87.588l44.986-38.388c3.325-2.838 3.325-7.975 0-10.813z" fill="#d9edff"/><path d="m268.264 248.909h185.816v87.588h-185.816z" fill="#22a7ff"/><path d="m499.066 287.297-44.986-38.388v87.588l44.986-38.388c3.325-2.837 3.325-7.975 0-10.812z" fill="#d9edff"/><path d="m58.168 161.321h184.595v87.588h-184.595z" fill="#ff656f" transform="matrix(-1 0 0 -1 300.932 410.23)"/><path d="m13.183 210.521 44.985 38.388v-87.588l-44.985 38.388c-3.325 2.837-3.325 7.975 0 10.812z" fill="#d9edff"/><path d="m268.264 141.821h185.816v19.5h-185.816z" fill="#ffd301"/><path d="m499.066 112.121-5.091-4.344-39.895 34.044v19.5l44.985-38.388c3.326-2.837 3.326-7.974.001-10.812z" fill="#b4dbff"/><path d="m268.264 316.997h185.816v19.5h-185.816z" fill="#0094fd"/><path d="m499.066 287.296-5.091-4.344-39.895 34.044v19.5l44.985-38.388c3.326-2.836 3.326-7.974.001-10.812z" fill="#b4dbff"/><path d="m58.168 229.409h184.595v19.5h-184.595z" fill="#ff4756"/><path d="m13.183 199.709c-3.325 2.837-3.325 7.975 0 10.812l44.985 38.388v-19.5l-39.895-34.044z" fill="#b4dbff"/><path d="m237.979 37.935h36.29v398h-36.29z" fill="#b4dbff"/><path d="m237.979 37.935v398h20.145v-366.787c0-6.311 5.116-11.427 11.427-11.427h4.718v-19.786z" fill="#8bcaff"/><path d="m311.325 432.142h-110.402c-6.415 0-11.614 5.2-11.614 11.615v13.061c0 6.415 5.2 11.615 11.615 11.615h110.401c6.415 0 11.615-5.2 11.615-11.615v-13.061c0-6.415-5.201-11.615-11.615-11.615z" fill="#6c7ed6"/><path d="m226.934 456.817v-13.06c0-6.415 5.2-11.615 11.615-11.615h-37.625c-6.415 0-11.615 5.2-11.615 11.615v13.06c0 6.415 5.2 11.615 11.615 11.615h37.625c-6.415 0-11.615-5.2-11.615-11.615z" fill="#4f67d2"/><path d="m285.989 32.395v-13.061c0-6.415-5.2-11.615-11.615-11.615h-36.499c-6.415 0-11.614 5.2-11.614 11.615v13.061c0 6.415 5.2 11.615 11.615 11.615h36.499c6.413 0 11.614-5.2 11.614-11.615z" fill="#d9edff"/><path d="m256.124 32.395v-13.061c0-6.415 5.2-11.615 11.614-11.615h-29.864c-6.415 0-11.615 5.2-11.615 11.615v13.061c0 6.415 5.2 11.615 11.615 11.615h29.864c-6.414 0-11.614-5.2-11.614-11.615z" fill="#b4dbff"/><path d="m351.257 467.432h-190.266c-6.415 0-11.615 5.2-11.615 11.615v14.061c0 6.415 5.2 11.615 11.615 11.615h190.266c6.414 0 11.615-5.2 11.615-11.615v-14.061c0-6.415-5.201-11.615-11.615-11.615z" fill="#4f67d2"/><path d="m187.002 493.107v-14.061c0-6.415 5.2-11.615 11.615-11.615h-37.625c-6.415 0-11.615 5.2-11.615 11.615v14.061c0 6.415 5.2 11.615 11.615 11.615h37.625c-6.415 0-11.615-5.2-11.615-11.615z" fill="#324ccc"/><path d="m58.044 153.602c-1.739 0-3.486.633-4.833 1.769-.011.01-.024.016-.036.026l-44.984 38.387c-6.835 5.833-6.827 16.396-.001 22.222h.001l44.985 38.388c1.307 1.109 3.044 1.793 4.862 1.795h.006 172.312v168.233h-29.556c-10.54 0-19.115 8.575-19.115 19.115v13.061c0 1.414.165 2.788.458 4.115h-21.275c-10.54 0-19.114 8.575-19.114 19.115v13.061c0 10.54 8.574 19.115 19.114 19.115h190.267c10.54 0 19.114-8.575 19.114-19.115v-13.061c0-10.54-8.574-19.115-19.114-19.115h-21.276c.292-1.327.458-2.701.458-4.115v-13.061c0-10.54-8.574-19.115-19.114-19.115h-29.556v-80.645h56.7c4.143 0 7.5-3.358 7.5-7.5s-3.357-7.5-7.5-7.5h-56.7v-72.588h164.811v72.588h-73.11c-4.143 0-7.5 3.358-7.5 7.5s3.357 7.5 7.5 7.5h80.61.004c1.831-.002 3.611-.714 4.864-1.795l44.987-38.388c6.833-5.832 6.826-16.396 0-22.222h-.001l-44.986-38.388c-.011-.01-.024-.017-.035-.026-1.363-1.15-3.141-1.769-4.833-1.769h-.022-.01-172.28v-18.793c0-4.142-3.357-7.5-7.5-7.5s-7.5 3.358-7.5 7.5v26.293 175.733h-21.29c0-8.248 0-361.865 0-373.132h21.29v136.105c0 4.142 3.357 7.5 7.5 7.5s7.5-3.358 7.5-7.5v-18.794h172.311.004c1.756-.002 3.494-.646 4.816-1.758.016-.013.032-.024.047-.037l44.987-38.388c6.833-5.832 6.826-16.396 0-22.222h-.001l-44.986-38.388c-.011-.01-.024-.017-.035-.026-1.368-1.155-3.145-1.769-4.833-1.769h-.026s-.002 0-.003 0h-172.281v-16.214c6.878-2.897 11.72-9.705 11.72-17.624v-13.06c0-10.54-8.575-19.115-19.115-19.115h-36.5c-10.54 0-19.114 8.575-19.114 19.115v13.061c0 7.919 4.842 14.727 11.72 17.624v103.802zm-40.117 50.994.002.001zm32.617 27.833-32.267-27.534 32.267-27.534zm410.913 32.519 32.268 27.535-32.268 27.535zm0-175.175 32.268 27.535-32.268 27.535zm-179.811-8.759h164.811v72.588h-164.811zm-216.102 160.175v-72.587h164.812v72.587zm285.59 234.523c2.269 0 4.114 1.846 4.114 4.115v13.061c0 2.269-1.846 4.115-4.114 4.115h-190.266c-2.269 0-4.114-1.846-4.114-4.115v-13.061c0-2.269 1.846-4.115 4.114-4.115zm-117.498-456.597c0-2.269 1.846-4.115 4.114-4.115h36.5c2.27 0 4.115 1.846 4.115 4.115v13.061c0 2.269-1.846 4.115-4.115 4.115h-.104-36.29-.104c-2.27 0-4.115-1.846-4.115-4.115v-13.061zm77.566 420.307c2.269 0 4.114 1.846 4.114 4.115v13.061c0 2.269-1.846 4.115-4.114 4.115h-110.402c-2.27 0-4.115-1.846-4.115-4.115v-13.061c0-2.269 1.846-4.115 4.115-4.115z"/><path d="m407.426 109.808h-94.431c-4.143 0-7.5 3.358-7.5 7.5s3.357 7.5 7.5 7.5h94.431c4.143 0 7.5-3.358 7.5-7.5s-3.357-7.5-7.5-7.5z"/><path d="m414.926 292.483c0-4.142-3.357-7.5-7.5-7.5h-94.431c-4.143 0-7.5 3.358-7.5 7.5s3.357 7.5 7.5 7.5h94.431c4.143 0 7.5-3.358 7.5-7.5z"/><path d="m193.247 197.395h-94.431c-4.143 0-7.5 3.358-7.5 7.5s3.357 7.5 7.5 7.5h94.431c4.143 0 7.5-3.358 7.5-7.5s-3.358-7.5-7.5-7.5z"/></svg>